<svg width="346" height="68" viewBox="0 0 346 68" fill="none" xmlns="http://www.w3.org/2000/svg">
<g filter="url(#filter0_d_1_30662)">
<rect x="9" y="6.99951" width="328" height="50" rx="6" fill="white"/>
</g>
<path d="M121.398 37.9995V26.7995H123.062V36.3355H127.886V37.9995H121.398ZM129.648 29.9995H131.312V37.9995H129.648V29.9995ZM130.488 28.6795C130.237 28.6795 130.026 28.5968 129.856 28.4315C129.685 28.2662 129.6 28.0582 129.6 27.8075C129.6 27.5622 129.685 27.3568 129.856 27.1915C130.026 27.0208 130.237 26.9355 130.488 26.9355C130.733 26.9355 130.941 27.0208 131.112 27.1915C131.282 27.3568 131.368 27.5622 131.368 27.8075C131.368 28.0582 131.282 28.2662 131.112 28.4315C130.941 28.5968 130.733 28.6795 130.488 28.6795ZM141.212 33.8075V37.9995H139.548V33.8395C139.548 33.3862 139.452 32.9755 139.26 32.6075C139.073 32.2342 138.815 31.9382 138.484 31.7195C138.159 31.4955 137.788 31.3835 137.372 31.3835C136.956 31.3835 136.591 31.4955 136.276 31.7195C135.967 31.9382 135.724 32.2342 135.548 32.6075C135.377 32.9755 135.292 33.3862 135.292 33.8395V37.9995H133.628V29.9995H135.292V31.0795C135.569 30.6742 135.905 30.3568 136.3 30.1275C136.695 29.8928 137.14 29.7755 137.636 29.7755C138.356 29.7755 138.98 29.9595 139.508 30.3275C140.041 30.6955 140.457 31.1835 140.756 31.7915C141.055 32.3995 141.207 33.0715 141.212 33.8075ZM149.904 37.9995H147.984L146.016 34.6075L144.728 36.1435V37.9995H143.072V25.9995H144.728V33.5595L147.712 29.9995H149.888L147.16 33.2555L149.904 37.9995ZM159.45 31.6635H157.77L157.762 37.9995H156.098L156.106 31.6635H154.834V29.9995H156.106L156.098 27.4875H157.762L157.77 29.9995H159.45V31.6635ZM168.126 33.8155V37.9995H166.462V33.8475C166.462 33.3942 166.366 32.9808 166.174 32.6075C165.987 32.2342 165.736 31.9382 165.422 31.7195C165.107 31.5008 164.758 31.3915 164.374 31.3915C163.958 31.3915 163.603 31.5008 163.31 31.7195C163.016 31.9382 162.79 32.2342 162.63 32.6075C162.475 32.9808 162.398 33.3942 162.398 33.8475V37.9995H160.726V25.9995H162.39V30.9355C162.614 30.5035 162.907 30.2048 163.27 30.0395C163.638 29.8688 164.059 29.7835 164.534 29.7835C165.254 29.7835 165.88 29.9675 166.414 30.3355C166.947 30.7035 167.363 31.1942 167.662 31.8075C167.96 32.4155 168.115 33.0848 168.126 33.8155ZM172.98 38.2075C172.244 38.2075 171.572 38.0182 170.964 37.6395C170.361 37.2608 169.879 36.7542 169.516 36.1195C169.159 35.4795 168.98 34.7728 168.98 33.9995C168.98 33.4128 169.084 32.8662 169.292 32.3595C169.5 31.8475 169.785 31.3995 170.148 31.0155C170.516 30.6262 170.943 30.3222 171.428 30.1035C171.913 29.8848 172.431 29.7755 172.98 29.7755C173.593 29.7755 174.156 29.9035 174.668 30.1595C175.18 30.4102 175.617 30.7595 175.98 31.2075C176.343 31.6502 176.609 32.1622 176.78 32.7435C176.951 33.3195 177.001 33.9328 176.932 34.5835H170.764C170.833 34.9515 170.967 35.2848 171.164 35.5835C171.367 35.8768 171.623 36.1088 171.932 36.2795C172.247 36.4502 172.596 36.5382 172.98 36.5435C173.385 36.5435 173.753 36.4422 174.084 36.2395C174.42 36.0368 174.695 35.7568 174.908 35.3995L176.596 35.7915C176.276 36.5008 175.793 37.0822 175.148 37.5355C174.503 37.9835 173.78 38.2075 172.98 38.2075ZM170.708 33.3115H175.252C175.199 32.9275 175.063 32.5808 174.844 32.2715C174.631 31.9568 174.361 31.7088 174.036 31.5275C173.716 31.3408 173.364 31.2475 172.98 31.2475C172.601 31.2475 172.249 31.3382 171.924 31.5195C171.604 31.7008 171.337 31.9488 171.124 32.2635C170.916 32.5728 170.777 32.9222 170.708 33.3115ZM186.009 26.7995H187.953L192.025 37.9995H190.265L189.489 35.8715H184.473L183.705 37.9995H181.937L186.009 26.7995ZM185.089 34.2075H188.873L186.977 29.0075L185.089 34.2075ZM194.858 41.9995H193.194V29.9995H194.858V31.1755C195.125 30.7648 195.466 30.4315 195.882 30.1755C196.298 29.9195 196.789 29.7915 197.354 29.7915C197.936 29.7915 198.48 29.9008 198.986 30.1195C199.498 30.3382 199.946 30.6422 200.33 31.0315C200.714 31.4155 201.016 31.8608 201.234 32.3675C201.453 32.8742 201.562 33.4182 201.562 33.9995C201.562 34.5808 201.453 35.1275 201.234 35.6395C201.016 36.1515 200.714 36.6022 200.33 36.9915C199.946 37.3755 199.498 37.6768 198.986 37.8955C198.48 38.1142 197.936 38.2235 197.354 38.2235C196.789 38.2235 196.298 38.0955 195.882 37.8395C195.466 37.5782 195.125 37.2448 194.858 36.8395V41.9995ZM197.338 31.3995C196.874 31.3995 196.466 31.5168 196.114 31.7515C195.762 31.9862 195.488 32.3008 195.29 32.6955C195.093 33.0848 194.994 33.5195 194.994 33.9995C194.994 34.4795 195.093 34.9168 195.29 35.3115C195.488 35.7062 195.762 36.0208 196.114 36.2555C196.466 36.4902 196.874 36.6075 197.338 36.6075C197.797 36.6075 198.218 36.4928 198.602 36.2635C198.986 36.0288 199.293 35.7142 199.522 35.3195C199.752 34.9248 199.866 34.4848 199.866 33.9995C199.866 33.5248 199.752 33.0902 199.522 32.6955C199.298 32.3008 198.994 31.9862 198.61 31.7515C198.226 31.5168 197.802 31.3995 197.338 31.3995ZM204.687 41.9995H203.023V29.9995H204.687V31.1755C204.953 30.7648 205.295 30.4315 205.711 30.1755C206.127 29.9195 206.617 29.7915 207.183 29.7915C207.764 29.7915 208.308 29.9008 208.815 30.1195C209.327 30.3382 209.775 30.6422 210.159 31.0315C210.543 31.4155 210.844 31.8608 211.062 32.3675C211.281 32.8742 211.391 33.4182 211.391 33.9995C211.391 34.5808 211.281 35.1275 211.062 35.6395C210.844 36.1515 210.543 36.6022 210.159 36.9915C209.775 37.3755 209.327 37.6768 208.815 37.8955C208.308 38.1142 207.764 38.2235 207.183 38.2235C206.617 38.2235 206.127 38.0955 205.711 37.8395C205.295 37.5782 204.953 37.2448 204.687 36.8395V41.9995ZM207.167 31.3995C206.703 31.3995 206.295 31.5168 205.943 31.7515C205.591 31.9862 205.316 32.3008 205.119 32.6955C204.921 33.0848 204.823 33.5195 204.823 33.9995C204.823 34.4795 204.921 34.9168 205.119 35.3115C205.316 35.7062 205.591 36.0208 205.943 36.2555C206.295 36.4902 206.703 36.6075 207.167 36.6075C207.625 36.6075 208.047 36.4928 208.431 36.2635C208.815 36.0288 209.121 35.7142 209.351 35.3195C209.58 34.9248 209.695 34.4848 209.695 33.9995C209.695 33.5248 209.58 33.0902 209.351 32.6955C209.127 32.3008 208.823 31.9862 208.439 31.7515C208.055 31.5168 207.631 31.3995 207.167 31.3995ZM212.9 37.9995V25.9995H214.556V37.9995H212.9ZM220.089 38.2075C219.353 38.2075 218.681 38.0182 218.073 37.6395C217.471 37.2608 216.988 36.7542 216.625 36.1195C216.268 35.4795 216.089 34.7728 216.089 33.9995C216.089 33.4128 216.193 32.8662 216.401 32.3595C216.609 31.8475 216.895 31.3995 217.257 31.0155C217.625 30.6262 218.052 30.3222 218.537 30.1035C219.023 29.8848 219.54 29.7755 220.089 29.7755C220.703 29.7755 221.265 29.9035 221.777 30.1595C222.289 30.4102 222.727 30.7595 223.089 31.2075C223.452 31.6502 223.719 32.1622 223.889 32.7435C224.06 33.3195 224.111 33.9328 224.041 34.5835H217.873C217.943 34.9515 218.076 35.2848 218.273 35.5835C218.476 35.8768 218.732 36.1088 219.041 36.2795C219.356 36.4502 219.705 36.5382 220.089 36.5435C220.495 36.5435 220.863 36.4422 221.193 36.2395C221.529 36.0368 221.804 35.7568 222.017 35.3995L223.705 35.7915C223.385 36.5008 222.903 37.0822 222.257 37.5355C221.612 37.9835 220.889 38.2075 220.089 38.2075ZM217.817 33.3115H222.361C222.308 32.9275 222.172 32.5808 221.953 32.2715C221.74 31.9568 221.471 31.7088 221.145 31.5275C220.825 31.3408 220.473 31.2475 220.089 31.2475C219.711 31.2475 219.359 31.3382 219.033 31.5195C218.713 31.7008 218.447 31.9488 218.233 32.2635C218.025 32.5728 217.887 32.9222 217.817 33.3115Z" fill="#20203A"/>
<path d="M49.2292 32.2681C49.216 30.0549 50.2328 28.387 52.286 27.1571C51.1376 25.5346 49.4003 24.6422 47.1102 24.4702C44.9418 24.3014 42.5694 25.7163 41.7007 25.7163C40.7827 25.7163 38.6834 24.5286 37.0316 24.5286C33.6227 24.5805 30 27.209 30 32.5569C30 34.1372 30.2928 35.7695 30.8785 37.4504C31.6617 39.6636 34.4848 45.0861 37.4298 44.9985C38.9697 44.9628 40.0588 43.9211 42.0627 43.9211C44.0073 43.9211 45.0142 44.9985 46.7318 44.9985C49.703 44.9563 52.2564 40.027 53 37.8074C49.0153 35.9545 49.2292 32.3816 49.2292 32.2681ZM45.771 22.3706C47.4392 20.4171 47.2878 18.6388 47.2385 17.9995C45.7644 18.0839 44.0599 18.9893 43.0893 20.1023C42.0199 21.2965 41.3914 22.773 41.5263 24.4377C43.1189 24.5578 44.5732 23.7498 45.771 22.3706Z" fill="#543393"/>
<defs>
<filter id="filter0_d_1_30662" x="0" y="-0.000488281" width="346" height="68" filterUnits="userSpaceOnUse" color-interpolation-filters="sRGB">
<feFlood flood-opacity="0" result="BackgroundImageFix"/>
<feColorMatrix in="SourceAlpha" type="matrix" values="0 0 0 0 0 0 0 0 0 0 0 0 0 0 0 0 0 0 127 0" result="hardAlpha"/>
<feOffset dy="2"/>
<feGaussianBlur stdDeviation="4.5"/>
<feComposite in2="hardAlpha" operator="out"/>
<feColorMatrix type="matrix" values="0 0 0 0 0.329412 0 0 0 0 0.2 0 0 0 0 0.576471 0 0 0 0.15 0"/>
<feBlend mode="normal" in2="BackgroundImageFix" result="effect1_dropShadow_1_30662"/>
<feBlend mode="normal" in="SourceGraphic" in2="effect1_dropShadow_1_30662" result="shape"/>
</filter>
</defs>
</svg>
