<svg width="35" height="35" viewBox="0 0 35 35" fill="none" xmlns="http://www.w3.org/2000/svg">
<path d="M21.2478 24.7602L21.7504 24.2689C21.9073 24.1143 21.9938 23.9085 21.9938 23.6886C21.9938 23.4689 21.9073 23.2629 21.7504 23.1083L16.0565 17.5034L21.7567 11.892C21.9137 11.7376 22 11.5316 22 11.3118C22 11.0921 21.9137 10.886 21.7567 10.7315L21.2572 10.24C20.9324 9.92 20.4033 9.92 20.0785 10.24L13.2673 16.921C13.1105 17.0754 13 17.2812 13 17.5029L13 17.5054C13 17.7253 13.1106 17.931 13.2673 18.0854L20.06 24.7602C20.2168 24.9149 20.4322 24.9998 20.6554 25C20.8787 25 21.0911 24.9149 21.2478 24.7602Z" fill="#EB2D7C"/>
</svg>
