<svg width="38" height="38" viewBox="0 0 38 38" fill="none" xmlns="http://www.w3.org/2000/svg">
<circle cx="19" cy="19" r="19" fill="#20203A"/>
<path fill-rule="evenodd" clip-rule="evenodd" d="M13.937 12.8454C14.0079 12.7469 14.0866 12.6263 14.1869 12.4637C14.2235 12.4043 14.3235 12.2394 14.3979 12.1166L14.398 12.1165L14.4818 11.9784C15.3108 10.6224 15.9134 10 17 10H21C22.0866 10 22.6892 10.6224 23.5182 11.9784L23.6021 12.1166C23.6765 12.2394 23.7765 12.4043 23.8131 12.4637C23.9134 12.6263 23.9921 12.7469 24.063 12.8454C24.1097 12.9103 24.1505 12.9619 24.1838 13H27C28.6569 13 30 14.3431 30 16V25C30 26.6569 28.6569 28 27 28H11C9.34315 28 8 26.6569 8 25V16C8 14.3431 9.34315 13 11 13H13.8162C13.8495 12.9619 13.8903 12.9103 13.937 12.8454ZM11 15C10.4477 15 10 15.4477 10 16V25C10 25.5523 10.4477 26 11 26H27C27.5523 26 28 25.5523 28 25V16C28 15.4477 27.5523 15 27 15H24C23.3357 15 22.8876 14.6364 22.4394 14.0133C22.3363 13.8699 22.2341 13.7133 22.1111 13.5141C22.069 13.4458 21.9596 13.2654 21.8846 13.1415L21.8118 13.0216C21.3595 12.2817 21.0867 12 21 12H17C16.9133 12 16.6405 12.2817 16.1882 13.0216L16.1154 13.1415L16.115 13.1422C16.04 13.266 15.9309 13.446 15.8889 13.5141C15.7659 13.7133 15.6637 13.8699 15.5606 14.0133C15.1124 14.6364 14.6643 15 14 15H11ZM27 17C27 17.5523 26.5523 18 26 18C25.4477 18 25 17.5523 25 17C25 16.4477 25.4477 16 26 16C26.5523 16 27 16.4477 27 17ZM14 20C14 22.7614 16.2386 25 19 25C21.7614 25 24 22.7614 24 20C24 17.2386 21.7614 15 19 15C16.2386 15 14 17.2386 14 20ZM22 20C22 21.6569 20.6569 23 19 23C17.3431 23 16 21.6569 16 20C16 18.3431 17.3431 17 19 17C20.6569 17 22 18.3431 22 20Z" fill="white"/>
</svg>
