<svg width="328" height="28" viewBox="0 0 328 28" fill="none" xmlns="http://www.w3.org/2000/svg">
<path d="M89.96 20V8.8H93.664C94.4373 8.8 95.1627 8.94667 95.84 9.24C96.5173 9.528 97.112 9.93067 97.624 10.448C98.136 10.96 98.536 11.5547 98.824 12.232C99.1173 12.904 99.264 13.6267 99.264 14.4C99.264 15.1733 99.1173 15.8987 98.824 16.576C98.536 17.248 98.136 17.8427 97.624 18.36C97.112 18.872 96.5173 19.2747 95.84 19.568C95.1627 19.856 94.4373 20 93.664 20H89.96ZM91.304 18.656H93.664C94.2507 18.656 94.8 18.5467 95.312 18.328C95.8293 18.104 96.2827 17.7973 96.672 17.408C97.0613 17.0187 97.3653 16.568 97.584 16.056C97.808 15.5387 97.92 14.9867 97.92 14.4C97.92 13.8133 97.808 13.264 97.584 12.752C97.3653 12.2347 97.0587 11.7813 96.664 11.392C96.2747 11.0027 95.824 10.6987 95.312 10.48C94.8 10.256 94.2507 10.144 93.664 10.144H91.304V18.656ZM104.089 20.208C103.353 20.208 102.681 20.0187 102.073 19.64C101.471 19.2613 100.988 18.7547 100.625 18.12C100.268 17.48 100.089 16.7733 100.089 16C100.089 15.4133 100.193 14.8667 100.401 14.36C100.609 13.848 100.895 13.4 101.257 13.016C101.625 12.6267 102.052 12.3227 102.537 12.104C103.023 11.8853 103.54 11.776 104.089 11.776C104.692 11.776 105.244 11.8987 105.745 12.144C106.252 12.384 106.684 12.72 107.041 13.152C107.404 13.584 107.673 14.0853 107.849 14.656C108.031 15.2267 108.097 15.8373 108.049 16.488H101.521C101.585 16.9413 101.735 17.3467 101.969 17.704C102.204 18.056 102.503 18.336 102.865 18.544C103.233 18.752 103.641 18.8587 104.089 18.864C104.569 18.864 105.004 18.7413 105.393 18.496C105.783 18.2453 106.097 17.904 106.337 17.472L107.705 17.792C107.385 18.5013 106.903 19.0827 106.257 19.536C105.612 19.984 104.889 20.208 104.089 20.208ZM101.481 15.432H106.697C106.655 14.984 106.511 14.576 106.265 14.208C106.02 13.8347 105.708 13.536 105.329 13.312C104.951 13.088 104.537 12.976 104.089 12.976C103.641 12.976 103.231 13.0853 102.857 13.304C102.484 13.5227 102.175 13.8187 101.929 14.192C101.689 14.56 101.54 14.9733 101.481 15.432ZM109.518 20V8H110.854V20H109.518ZM116.433 20.208C115.697 20.208 115.025 20.0187 114.417 19.64C113.814 19.2613 113.332 18.7547 112.969 18.12C112.612 17.48 112.433 16.7733 112.433 16C112.433 15.4133 112.537 14.8667 112.745 14.36C112.953 13.848 113.238 13.4 113.601 13.016C113.969 12.6267 114.396 12.3227 114.881 12.104C115.366 11.8853 115.884 11.776 116.433 11.776C117.036 11.776 117.588 11.8987 118.089 12.144C118.596 12.384 119.028 12.72 119.385 13.152C119.748 13.584 120.017 14.0853 120.193 14.656C120.374 15.2267 120.441 15.8373 120.393 16.488H113.865C113.929 16.9413 114.078 17.3467 114.313 17.704C114.548 18.056 114.846 18.336 115.209 18.544C115.577 18.752 115.985 18.8587 116.433 18.864C116.913 18.864 117.348 18.7413 117.737 18.496C118.126 18.2453 118.441 17.904 118.681 17.472L120.049 17.792C119.729 18.5013 119.246 19.0827 118.601 19.536C117.956 19.984 117.233 20.208 116.433 20.208ZM113.825 15.432H119.041C118.998 14.984 118.854 14.576 118.609 14.208C118.364 13.8347 118.052 13.536 117.673 13.312C117.294 13.088 116.881 12.976 116.433 12.976C115.985 12.976 115.574 13.0853 115.201 13.304C114.828 13.5227 114.518 13.8187 114.273 14.192C114.033 14.56 113.884 14.9733 113.825 15.432ZM125.792 13.344H123.976L123.968 20H122.624L122.632 13.344H121.256V12H122.632L122.624 9.488H123.968L123.976 12H125.792V13.344ZM130.511 20.208C129.775 20.208 129.103 20.0187 128.495 19.64C127.893 19.2613 127.41 18.7547 127.047 18.12C126.69 17.48 126.511 16.7733 126.511 16C126.511 15.4133 126.615 14.8667 126.823 14.36C127.031 13.848 127.317 13.4 127.679 13.016C128.047 12.6267 128.474 12.3227 128.959 12.104C129.445 11.8853 129.962 11.776 130.511 11.776C131.114 11.776 131.666 11.8987 132.167 12.144C132.674 12.384 133.106 12.72 133.463 13.152C133.826 13.584 134.095 14.0853 134.271 14.656C134.453 15.2267 134.519 15.8373 134.471 16.488H127.943C128.007 16.9413 128.157 17.3467 128.391 17.704C128.626 18.056 128.925 18.336 129.287 18.544C129.655 18.752 130.063 18.8587 130.511 18.864C130.991 18.864 131.426 18.7413 131.815 18.496C132.205 18.2453 132.519 17.904 132.759 17.472L134.127 17.792C133.807 18.5013 133.325 19.0827 132.679 19.536C132.034 19.984 131.311 20.208 130.511 20.208ZM127.903 15.432H133.119C133.077 14.984 132.933 14.576 132.687 14.208C132.442 13.8347 132.13 13.536 131.751 13.312C131.373 13.088 130.959 12.976 130.511 12.976C130.063 12.976 129.653 13.0853 129.279 13.304C128.906 13.5227 128.597 13.8187 128.351 14.192C128.111 14.56 127.962 14.9733 127.903 15.432ZM139.556 20V12H140.9V13.16C141.167 12.7707 141.455 12.4587 141.764 12.224C142.073 11.984 142.46 11.864 142.924 11.864C143.553 11.864 144.1 12.016 144.564 12.32C145.028 12.624 145.404 13.04 145.692 13.568C145.985 13.0347 146.367 12.6187 146.836 12.32C147.305 12.016 147.849 11.864 148.468 11.864C149.145 11.864 149.735 12.0373 150.236 12.384C150.743 12.7307 151.135 13.192 151.412 13.768C151.695 14.344 151.836 14.976 151.836 15.664V20H150.492V15.664C150.492 15.2107 150.409 14.8 150.244 14.432C150.084 14.0587 149.852 13.7627 149.548 13.544C149.249 13.32 148.889 13.208 148.468 13.208C148.047 13.208 147.679 13.32 147.364 13.544C147.049 13.7627 146.804 14.0587 146.628 14.432C146.452 14.8 146.364 15.2107 146.364 15.664V20H145.02V15.664C145.02 15.2107 144.932 14.8 144.756 14.432C144.58 14.0587 144.335 13.7627 144.02 13.544C143.705 13.32 143.34 13.208 142.924 13.208C142.529 13.208 142.18 13.3253 141.876 13.56C141.572 13.7947 141.332 14.1067 141.156 14.496C140.985 14.88 140.9 15.2987 140.9 15.752V20H139.556ZM158.753 12H160.177L155.801 24H154.377L155.825 20L152.953 12H154.424L156.497 18.152L158.753 12ZM165.136 20L169.24 14.368L165.184 8.8H166.84L170.064 13.232L173.296 8.8H174.952L170.904 14.368L175 20H173.336L170.064 15.52L166.808 20H165.136ZM177.788 24H176.444V12H177.788V13.368C178.06 12.8987 178.423 12.52 178.876 12.232C179.33 11.9387 179.868 11.792 180.492 11.792C181.074 11.792 181.618 11.9013 182.124 12.12C182.636 12.3387 183.084 12.6427 183.468 13.032C183.852 13.416 184.154 13.8613 184.372 14.368C184.591 14.8747 184.7 15.4187 184.7 16C184.7 16.5813 184.591 17.128 184.372 17.64C184.154 18.152 183.852 18.6027 183.468 18.992C183.084 19.376 182.636 19.6773 182.124 19.896C181.618 20.1147 181.074 20.224 180.492 20.224C179.868 20.224 179.33 20.08 178.876 19.792C178.423 19.4987 178.06 19.1173 177.788 18.648V24ZM180.476 13.096C179.959 13.096 179.506 13.2267 179.116 13.488C178.727 13.7493 178.426 14.0987 178.212 14.536C178.004 14.9733 177.9 15.4613 177.9 16C177.9 16.5333 178.004 17.0213 178.212 17.464C178.426 17.9067 178.724 18.2587 179.108 18.52C179.498 18.7813 179.954 18.912 180.476 18.912C180.994 18.912 181.468 18.784 181.9 18.528C182.332 18.2667 182.679 17.9173 182.94 17.48C183.202 17.0373 183.332 16.544 183.332 16C183.332 15.4667 183.204 14.9813 182.948 14.544C182.692 14.1013 182.348 13.7493 181.916 13.488C181.484 13.2267 181.004 13.096 180.476 13.096ZM186.299 20V8H187.635V20H186.299ZM193.214 20.208C192.478 20.208 191.806 20.0187 191.198 19.64C190.596 19.2613 190.113 18.7547 189.75 18.12C189.393 17.48 189.214 16.7733 189.214 16C189.214 15.4133 189.318 14.8667 189.526 14.36C189.734 13.848 190.02 13.4 190.382 13.016C190.75 12.6267 191.177 12.3227 191.662 12.104C192.148 11.8853 192.665 11.776 193.214 11.776C193.95 11.776 194.62 11.9653 195.222 12.344C195.83 12.7227 196.313 13.232 196.67 13.872C197.033 14.512 197.214 15.2213 197.214 16C197.214 16.5813 197.11 17.1253 196.902 17.632C196.694 18.1387 196.406 18.5867 196.038 18.976C195.676 19.36 195.252 19.6613 194.766 19.88C194.286 20.0987 193.769 20.208 193.214 20.208ZM193.214 18.864C193.716 18.864 194.166 18.7333 194.566 18.472C194.972 18.2053 195.289 17.856 195.518 17.424C195.753 16.9867 195.87 16.512 195.87 16C195.87 15.4773 195.75 14.9973 195.51 14.56C195.276 14.1227 194.958 13.7733 194.558 13.512C194.158 13.2507 193.71 13.12 193.214 13.12C192.713 13.12 192.262 13.2533 191.862 13.52C191.462 13.7813 191.145 14.1307 190.91 14.568C190.676 15.0053 190.558 15.4827 190.558 16C190.558 16.5333 190.678 17.0187 190.918 17.456C191.158 17.888 191.481 18.232 191.886 18.488C192.292 18.7387 192.734 18.864 193.214 18.864ZM203.114 13.328C202.981 13.2533 202.837 13.1947 202.682 13.152C202.527 13.1093 202.359 13.088 202.178 13.088C201.735 13.088 201.341 13.208 200.994 13.448C200.653 13.688 200.383 14.0133 200.186 14.424C199.989 14.8347 199.89 15.288 199.89 15.784V20H198.538V12H199.882V13.232C200.17 12.784 200.527 12.432 200.954 12.176C201.381 11.9147 201.853 11.784 202.37 11.784C202.546 11.784 202.714 11.792 202.874 11.808C203.034 11.824 203.186 11.856 203.33 11.904L203.114 13.328ZM204.523 12H205.867V20H204.523V12ZM205.203 10.536C204.995 10.536 204.819 10.4667 204.675 10.328C204.531 10.1893 204.459 10.016 204.459 9.808C204.459 9.6 204.531 9.42667 204.675 9.288C204.819 9.14933 204.995 9.08 205.203 9.08C205.411 9.08 205.587 9.14933 205.731 9.288C205.875 9.42667 205.947 9.6 205.947 9.808C205.947 10.016 205.875 10.1893 205.731 10.328C205.587 10.4667 205.411 10.536 205.203 10.536ZM214.746 12H216.09V20H214.738L214.69 18.648C214.439 19.112 214.092 19.488 213.65 19.776C213.212 20.064 212.692 20.208 212.09 20.208C211.498 20.208 210.946 20.0987 210.434 19.88C209.922 19.656 209.468 19.3493 209.074 18.96C208.684 18.5653 208.38 18.112 208.162 17.6C207.943 17.088 207.834 16.536 207.834 15.944C207.834 15.3733 207.94 14.8347 208.154 14.328C208.367 13.8213 208.663 13.3787 209.042 13C209.426 12.616 209.868 12.3173 210.37 12.104C210.871 11.8853 211.407 11.776 211.978 11.776C212.612 11.776 213.167 11.9253 213.642 12.224C214.122 12.5173 214.506 12.8987 214.794 13.368L214.746 12ZM212.122 18.904C212.655 18.904 213.114 18.7707 213.498 18.504C213.882 18.2373 214.172 17.88 214.37 17.432C214.572 16.984 214.663 16.488 214.642 15.944C214.62 15.4107 214.495 14.928 214.266 14.496C214.036 14.064 213.727 13.7227 213.338 13.472C212.948 13.216 212.495 13.088 211.978 13.088C211.45 13.088 210.97 13.2213 210.538 13.488C210.106 13.7547 209.767 14.112 209.522 14.56C209.282 15.008 209.172 15.5067 209.194 16.056C209.22 16.584 209.37 17.064 209.642 17.496C209.914 17.928 210.266 18.272 210.698 18.528C211.135 18.7787 211.61 18.904 212.122 18.904ZM228.371 12H229.715V20H228.363L228.315 18.648C228.064 19.112 227.717 19.488 227.275 19.776C226.837 20.064 226.317 20.208 225.715 20.208C225.123 20.208 224.571 20.0987 224.059 19.88C223.547 19.656 223.093 19.3493 222.699 18.96C222.309 18.5653 222.005 18.112 221.787 17.6C221.568 17.088 221.459 16.536 221.459 15.944C221.459 15.3733 221.565 14.8347 221.779 14.328C221.992 13.8213 222.288 13.3787 222.667 13C223.051 12.616 223.493 12.3173 223.995 12.104C224.496 11.8853 225.032 11.776 225.603 11.776C226.237 11.776 226.792 11.9253 227.267 12.224C227.747 12.5173 228.131 12.8987 228.419 13.368L228.371 12ZM225.747 18.904C226.28 18.904 226.739 18.7707 227.123 18.504C227.507 18.2373 227.797 17.88 227.995 17.432C228.197 16.984 228.288 16.488 228.267 15.944C228.245 15.4107 228.12 14.928 227.891 14.496C227.661 14.064 227.352 13.7227 226.963 13.472C226.573 13.216 226.12 13.088 225.603 13.088C225.075 13.088 224.595 13.2213 224.163 13.488C223.731 13.7547 223.392 14.112 223.147 14.56C222.907 15.008 222.797 15.5067 222.819 16.056C222.845 16.584 222.995 17.064 223.267 17.496C223.539 17.928 223.891 18.272 224.323 18.528C224.76 18.7787 225.235 18.904 225.747 18.904ZM236.91 17.888L238.11 18.536C237.747 19.0427 237.286 19.448 236.726 19.752C236.171 20.056 235.568 20.208 234.918 20.208C234.182 20.208 233.51 20.0187 232.902 19.64C232.299 19.2613 231.816 18.7547 231.454 18.12C231.096 17.48 230.918 16.7733 230.918 16C230.918 15.4133 231.022 14.8667 231.23 14.36C231.438 13.848 231.723 13.4 232.086 13.016C232.454 12.6267 232.88 12.3227 233.366 12.104C233.851 11.8853 234.368 11.776 234.918 11.776C235.568 11.776 236.171 11.928 236.726 12.232C237.286 12.536 237.747 12.944 238.11 13.456L236.91 14.104C236.654 13.7893 236.35 13.5467 235.998 13.376C235.646 13.2053 235.286 13.12 234.918 13.12C234.422 13.12 233.971 13.2533 233.566 13.52C233.166 13.7813 232.848 14.1307 232.614 14.568C232.379 15.0053 232.262 15.4827 232.262 16C232.262 16.5173 232.379 16.9947 232.614 17.432C232.854 17.864 233.174 18.2107 233.574 18.472C233.979 18.7333 234.427 18.864 234.918 18.864C235.312 18.864 235.683 18.7733 236.03 18.592C236.376 18.4107 236.67 18.176 236.91 17.888ZM244.878 17.888L246.078 18.536C245.716 19.0427 245.254 19.448 244.694 19.752C244.14 20.056 243.537 20.208 242.886 20.208C242.15 20.208 241.478 20.0187 240.87 19.64C240.268 19.2613 239.785 18.7547 239.422 18.12C239.065 17.48 238.886 16.7733 238.886 16C238.886 15.4133 238.99 14.8667 239.198 14.36C239.406 13.848 239.692 13.4 240.054 13.016C240.422 12.6267 240.849 12.3227 241.334 12.104C241.82 11.8853 242.337 11.776 242.886 11.776C243.537 11.776 244.14 11.928 244.694 12.232C245.254 12.536 245.716 12.944 246.078 13.456L244.878 14.104C244.622 13.7893 244.318 13.5467 243.966 13.376C243.614 13.2053 243.254 13.12 242.886 13.12C242.39 13.12 241.94 13.2533 241.534 13.52C241.134 13.7813 240.817 14.1307 240.582 14.568C240.348 15.0053 240.23 15.4827 240.23 16C240.23 16.5173 240.348 16.9947 240.582 17.432C240.822 17.864 241.142 18.2107 241.542 18.472C241.948 18.7333 242.396 18.864 242.886 18.864C243.281 18.864 243.652 18.7733 243.998 18.592C244.345 18.4107 244.638 18.176 244.878 17.888ZM250.855 20.208C250.119 20.208 249.447 20.0187 248.839 19.64C248.236 19.2613 247.754 18.7547 247.391 18.12C247.034 17.48 246.855 16.7733 246.855 16C246.855 15.4133 246.959 14.8667 247.167 14.36C247.375 13.848 247.66 13.4 248.023 13.016C248.391 12.6267 248.818 12.3227 249.303 12.104C249.788 11.8853 250.306 11.776 250.855 11.776C251.591 11.776 252.26 11.9653 252.863 12.344C253.471 12.7227 253.954 13.232 254.311 13.872C254.674 14.512 254.855 15.2213 254.855 16C254.855 16.5813 254.751 17.1253 254.543 17.632C254.335 18.1387 254.047 18.5867 253.679 18.976C253.316 19.36 252.892 19.6613 252.407 19.88C251.927 20.0987 251.41 20.208 250.855 20.208ZM250.855 18.864C251.356 18.864 251.807 18.7333 252.207 18.472C252.612 18.2053 252.93 17.856 253.159 17.424C253.394 16.9867 253.511 16.512 253.511 16C253.511 15.4773 253.391 14.9973 253.151 14.56C252.916 14.1227 252.599 13.7733 252.199 13.512C251.799 13.2507 251.351 13.12 250.855 13.12C250.354 13.12 249.903 13.2533 249.503 13.52C249.103 13.7813 248.786 14.1307 248.551 14.568C248.316 15.0053 248.199 15.4827 248.199 16C248.199 16.5333 248.319 17.0187 248.559 17.456C248.799 17.888 249.122 18.232 249.527 18.488C249.932 18.7387 250.375 18.864 250.855 18.864ZM256.069 16.24V12H257.413V16.208C257.413 16.704 257.517 17.1573 257.725 17.568C257.933 17.9733 258.216 18.2987 258.573 18.544C258.931 18.784 259.333 18.904 259.781 18.904C260.229 18.904 260.624 18.784 260.965 18.544C261.312 18.2987 261.581 17.9733 261.773 17.568C261.971 17.1573 262.069 16.704 262.069 16.208V12H263.413V20H262.069V18.76C261.781 19.208 261.427 19.5627 261.005 19.824C260.584 20.0853 260.112 20.216 259.589 20.216C258.891 20.216 258.277 20.0347 257.749 19.672C257.227 19.3093 256.819 18.8267 256.525 18.224C256.232 17.6213 256.08 16.96 256.069 16.24ZM272.519 15.744V20H271.175V15.776C271.175 15.28 271.071 14.8293 270.863 14.424C270.655 14.0133 270.372 13.688 270.015 13.448C269.658 13.2027 269.255 13.08 268.807 13.08C268.364 13.08 267.97 13.2027 267.623 13.448C267.282 13.688 267.012 14.0133 266.815 14.424C266.618 14.8293 266.519 15.28 266.519 15.776V20H265.175V12H266.519V13.232C266.807 12.7787 267.162 12.424 267.583 12.168C268.01 11.9067 268.484 11.776 269.007 11.776C269.7 11.776 270.308 11.9573 270.831 12.32C271.359 12.6827 271.77 13.1653 272.063 13.768C272.362 14.3653 272.514 15.024 272.519 15.744ZM278.417 13.344H276.601L276.593 20H275.249L275.257 13.344H273.881V12H275.257L275.249 9.488H276.593L276.601 12H278.417V13.344Z" fill="#EB2D7C"/>
<path d="M51.5 9H53.1667H66.5" stroke="#EB2D7C" stroke-width="1.5" stroke-linecap="round" stroke-linejoin="round"/>
<path d="M65.5827 9.00008C65.5827 8.58587 65.2469 8.25008 64.8327 8.25008C64.4185 8.25008 64.0827 8.58587 64.0827 9.00008H65.5827ZM53.916 9.00008C53.916 8.58587 53.5802 8.25008 53.166 8.25008C52.7518 8.25008 52.416 8.58587 52.416 9.00008H53.916ZM54.916 9.00008C54.916 9.41429 55.2518 9.75008 55.666 9.75008C56.0802 9.75008 56.416 9.41429 56.416 9.00008H54.916ZM61.5827 9.00008C61.5827 9.41429 61.9185 9.75008 62.3327 9.75008C62.7469 9.75008 63.0827 9.41429 63.0827 9.00008H61.5827ZM64.0827 9.00008V20.6667H65.5827V9.00008H64.0827ZM64.0827 20.6667C64.0827 21.173 63.6723 21.5834 63.166 21.5834V23.0834C64.5007 23.0834 65.5827 22.0014 65.5827 20.6667H64.0827ZM63.166 21.5834H54.8327V23.0834H63.166V21.5834ZM54.8327 21.5834C54.3264 21.5834 53.916 21.173 53.916 20.6667H52.416C52.416 22.0014 53.498 23.0834 54.8327 23.0834V21.5834ZM53.916 20.6667V9.00008H52.416V20.6667H53.916ZM56.416 9.00008V7.33341H54.916V9.00008H56.416ZM56.416 7.33341C56.416 6.82715 56.8264 6.41675 57.3327 6.41675V4.91675C55.998 4.91675 54.916 5.99873 54.916 7.33341H56.416ZM57.3327 6.41675H60.666V4.91675H57.3327V6.41675ZM60.666 6.41675C61.1723 6.41675 61.5827 6.82715 61.5827 7.33341H63.0827C63.0827 5.99873 62.0007 4.91675 60.666 4.91675V6.41675ZM61.5827 7.33341V9.00008H63.0827V7.33341H61.5827Z" fill="#EB2D7C"/>
<path d="M57.334 13.1667V18.1667" stroke="#EB2D7C" stroke-width="1.5" stroke-linecap="round" stroke-linejoin="round"/>
<path d="M60.666 13.1667V18.1667" stroke="#EB2D7C" stroke-width="1.5" stroke-linecap="round" stroke-linejoin="round"/>
</svg>
