<svg width="328" height="28" viewBox="0 0 328 28" fill="none" xmlns="http://www.w3.org/2000/svg">
<path d="M155.96 20V8.8H157.304V18.656H162.32V20H155.96ZM166.824 20.208C166.088 20.208 165.416 20.0187 164.808 19.64C164.205 19.2613 163.722 18.7547 163.36 18.12C163.002 17.48 162.824 16.7733 162.824 16C162.824 15.4133 162.928 14.8667 163.136 14.36C163.344 13.848 163.629 13.4 163.992 13.016C164.36 12.6267 164.786 12.3227 165.272 12.104C165.757 11.8853 166.274 11.776 166.824 11.776C167.56 11.776 168.229 11.9653 168.832 12.344C169.44 12.7227 169.922 13.232 170.28 13.872C170.642 14.512 170.824 15.2213 170.824 16C170.824 16.5813 170.72 17.1253 170.512 17.632C170.304 18.1387 170.016 18.5867 169.648 18.976C169.285 19.36 168.861 19.6613 168.376 19.88C167.896 20.0987 167.378 20.208 166.824 20.208ZM166.824 18.864C167.325 18.864 167.776 18.7333 168.176 18.472C168.581 18.2053 168.898 17.856 169.128 17.424C169.362 16.9867 169.48 16.512 169.48 16C169.48 15.4773 169.36 14.9973 169.12 14.56C168.885 14.1227 168.568 13.7733 168.168 13.512C167.768 13.2507 167.32 13.12 166.824 13.12C166.322 13.12 165.872 13.2533 165.472 13.52C165.072 13.7813 164.754 14.1307 164.52 14.568C164.285 15.0053 164.168 15.4827 164.168 16C164.168 16.5333 164.288 17.0187 164.528 17.456C164.768 17.888 165.09 18.232 165.496 18.488C165.901 18.7387 166.344 18.864 166.824 18.864ZM178.349 12H179.693V20.256C179.693 20.784 179.578 21.2747 179.349 21.728C179.125 22.1867 178.821 22.584 178.437 22.92C178.053 23.2613 177.615 23.5253 177.125 23.712C176.634 23.904 176.122 24 175.589 24C175.034 24 174.498 23.8747 173.981 23.624C173.463 23.3787 173.01 23.048 172.621 22.632C172.237 22.2213 171.959 21.76 171.789 21.248L173.021 20.688C173.122 21.056 173.303 21.3867 173.565 21.68C173.831 21.9787 174.141 22.2133 174.493 22.384C174.85 22.56 175.215 22.648 175.589 22.648C175.941 22.648 176.279 22.5867 176.605 22.464C176.935 22.3413 177.231 22.1707 177.493 21.952C177.759 21.7387 177.967 21.4853 178.117 21.192C178.271 20.904 178.349 20.592 178.349 20.256V18.664C178.077 19.1227 177.717 19.496 177.269 19.784C176.826 20.0667 176.309 20.208 175.717 20.208C175.151 20.208 174.621 20.0987 174.125 19.88C173.629 19.6613 173.194 19.36 172.821 18.976C172.447 18.5867 172.154 18.1387 171.941 17.632C171.727 17.1253 171.621 16.5813 171.621 16C171.621 15.4187 171.727 14.8747 171.941 14.368C172.154 13.856 172.447 13.408 172.821 13.024C173.194 12.6347 173.629 12.3307 174.125 12.112C174.621 11.8933 175.151 11.784 175.717 11.784C176.309 11.784 176.826 11.9253 177.269 12.208C177.717 12.4907 178.077 12.864 178.349 13.328V12ZM175.725 18.904C176.242 18.904 176.69 18.7707 177.069 18.504C177.453 18.2373 177.749 17.8827 177.957 17.44C178.165 16.9973 178.269 16.5173 178.269 16C178.269 15.4667 178.162 14.9813 177.949 14.544C177.741 14.1013 177.445 13.7493 177.061 13.488C176.682 13.2213 176.237 13.088 175.725 13.088C175.223 13.088 174.765 13.2187 174.349 13.48C173.933 13.7413 173.602 14.0933 173.357 14.536C173.117 14.9733 172.997 15.4613 172.997 16C172.997 16.5387 173.119 17.0293 173.365 17.472C173.615 17.9093 173.946 18.2587 174.357 18.52C174.773 18.776 175.229 18.904 175.725 18.904ZM190.66 20.208C189.903 20.208 189.191 20.0587 188.524 19.76C187.857 19.456 187.271 19.0373 186.764 18.504C186.257 17.9707 185.86 17.3547 185.572 16.656C185.284 15.952 185.14 15.2 185.14 14.4C185.14 13.6 185.284 12.8507 185.572 12.152C185.86 11.448 186.257 10.8293 186.764 10.296C187.271 9.76267 187.857 9.34667 188.524 9.048C189.191 8.744 189.903 8.592 190.66 8.592C191.423 8.592 192.137 8.744 192.804 9.048C193.471 9.34667 194.057 9.76267 194.564 10.296C195.071 10.8293 195.465 11.448 195.748 12.152C196.036 12.8507 196.18 13.6 196.18 14.4C196.18 15.2 196.036 15.952 195.748 16.656C195.465 17.3547 195.071 17.9707 194.564 18.504C194.057 19.0373 193.471 19.456 192.804 19.76C192.137 20.0587 191.423 20.208 190.66 20.208ZM190.66 18.864C191.241 18.864 191.783 18.7467 192.284 18.512C192.791 18.2773 193.233 17.9547 193.612 17.544C193.996 17.128 194.295 16.6533 194.508 16.12C194.727 15.5813 194.836 15.008 194.836 14.4C194.836 13.792 194.727 13.2187 194.508 12.68C194.289 12.136 193.988 11.6613 193.604 11.256C193.225 10.8453 192.783 10.5227 192.276 10.288C191.775 10.0533 191.236 9.936 190.66 9.936C190.079 9.936 189.535 10.0533 189.028 10.288C188.527 10.5227 188.084 10.848 187.7 11.264C187.321 11.6747 187.023 12.1493 186.804 12.688C186.591 13.2213 186.484 13.792 186.484 14.4C186.484 15.0133 186.593 15.5893 186.812 16.128C187.031 16.6667 187.329 17.1413 187.708 17.552C188.092 17.9627 188.535 18.2853 189.036 18.52C189.543 18.7493 190.084 18.864 190.66 18.864ZM197.632 16.24V12H198.976V16.208C198.976 16.704 199.08 17.1573 199.288 17.568C199.496 17.9733 199.779 18.2987 200.136 18.544C200.493 18.784 200.896 18.904 201.344 18.904C201.792 18.904 202.187 18.784 202.528 18.544C202.875 18.2987 203.144 17.9733 203.336 17.568C203.533 17.1573 203.632 16.704 203.632 16.208V12H204.976V20H203.632V18.76C203.344 19.208 202.989 19.5627 202.568 19.824C202.147 20.0853 201.675 20.216 201.152 20.216C200.453 20.216 199.84 20.0347 199.312 19.672C198.789 19.3093 198.381 18.8267 198.088 18.224C197.795 17.6213 197.643 16.96 197.632 16.24ZM211.042 13.344H209.226L209.218 20H207.874L207.882 13.344H206.506V12H207.882L207.874 9.488H209.218L209.226 12H211.042V13.344Z" fill="#EB2D7C"/>
<path d="M124.333 22.3334H120.167C119.246 22.3334 118.5 21.5872 118.5 20.6667V7.33341C118.5 6.41294 119.246 5.66675 120.167 5.66675H124.333" stroke="#EB2D7C" stroke-width="1.5" stroke-linecap="round" stroke-linejoin="round"/>
<path d="M130.166 17.3334L133.499 14.0001L130.166 10.6667" stroke="#EB2D7C" stroke-width="1.5" stroke-linecap="round" stroke-linejoin="round"/>
<path d="M133.5 14H123.5" stroke="#EB2D7C" stroke-width="1.5" stroke-linecap="round" stroke-linejoin="round"/>
</svg>
