<svg width="346" height="68" viewBox="0 0 346 68" fill="none" xmlns="http://www.w3.org/2000/svg">
<g filter="url(#filter0_d_1_30666)">
<rect x="9" y="6.99951" width="328" height="50" rx="6" fill="white"/>
</g>
<path d="M109.038 40.9995V29.7995H110.702V39.3355H115.526V40.9995H109.038ZM117.288 32.9995H118.952V40.9995H117.288V32.9995ZM118.128 31.6795C117.877 31.6795 117.667 31.5968 117.496 31.4315C117.325 31.2662 117.24 31.0582 117.24 30.8075C117.24 30.5622 117.325 30.3568 117.496 30.1915C117.667 30.0208 117.877 29.9355 118.128 29.9355C118.373 29.9355 118.581 30.0208 118.752 30.1915C118.923 30.3568 119.008 30.5622 119.008 30.8075C119.008 31.0582 118.923 31.2662 118.752 31.4315C118.581 31.5968 118.373 31.6795 118.128 31.6795ZM128.853 36.8075V40.9995H127.189V36.8395C127.189 36.3862 127.093 35.9755 126.901 35.6075C126.714 35.2342 126.455 34.9382 126.125 34.7195C125.799 34.4955 125.429 34.3835 125.013 34.3835C124.597 34.3835 124.231 34.4955 123.917 34.7195C123.607 34.9382 123.365 35.2342 123.189 35.6075C123.018 35.9755 122.933 36.3862 122.933 36.8395V40.9995H121.269V32.9995H122.933V34.0795C123.21 33.6742 123.546 33.3568 123.941 33.1275C124.335 32.8928 124.781 32.7755 125.277 32.7755C125.997 32.7755 126.621 32.9595 127.149 33.3275C127.682 33.6955 128.098 34.1835 128.397 34.7915C128.695 35.3995 128.847 36.0715 128.853 36.8075ZM137.544 40.9995H135.624L133.656 37.6075L132.368 39.1435V40.9995H130.712V28.9995H132.368V36.5595L135.352 32.9995H137.528L134.8 36.2555L137.544 40.9995ZM147.09 34.6635H145.41L145.402 40.9995H143.738L143.746 34.6635H142.474V32.9995H143.746L143.738 30.4875H145.402L145.41 32.9995H147.09V34.6635ZM155.766 36.8155V40.9995H154.102V36.8475C154.102 36.3942 154.006 35.9808 153.814 35.6075C153.628 35.2342 153.377 34.9382 153.062 34.7195C152.748 34.5008 152.398 34.3915 152.014 34.3915C151.598 34.3915 151.244 34.5008 150.95 34.7195C150.657 34.9382 150.43 35.2342 150.27 35.6075C150.116 35.9808 150.038 36.3942 150.038 36.8475V40.9995H148.366V28.9995H150.03V33.9355C150.254 33.5035 150.548 33.2048 150.91 33.0395C151.278 32.8688 151.7 32.7835 152.174 32.7835C152.894 32.7835 153.521 32.9675 154.054 33.3355C154.588 33.7035 155.004 34.1942 155.302 34.8075C155.601 35.4155 155.756 36.0848 155.766 36.8155ZM160.621 41.2075C159.885 41.2075 159.213 41.0182 158.605 40.6395C158.002 40.2608 157.519 39.7542 157.157 39.1195C156.799 38.4795 156.621 37.7728 156.621 36.9995C156.621 36.4128 156.725 35.8662 156.933 35.3595C157.141 34.8475 157.426 34.3995 157.789 34.0155C158.157 33.6262 158.583 33.3222 159.069 33.1035C159.554 32.8848 160.071 32.7755 160.621 32.7755C161.234 32.7755 161.797 32.9035 162.309 33.1595C162.821 33.4102 163.258 33.7595 163.621 34.2075C163.983 34.6502 164.25 35.1622 164.421 35.7435C164.591 36.3195 164.642 36.9328 164.573 37.5835H158.405C158.474 37.9515 158.607 38.2848 158.805 38.5835C159.007 38.8768 159.263 39.1088 159.573 39.2795C159.887 39.4502 160.237 39.5382 160.621 39.5435C161.026 39.5435 161.394 39.4422 161.725 39.2395C162.061 39.0368 162.335 38.7568 162.549 38.3995L164.237 38.7915C163.917 39.5008 163.434 40.0822 162.789 40.5355C162.143 40.9835 161.421 41.2075 160.621 41.2075ZM158.349 36.3115H162.893C162.839 35.9275 162.703 35.5808 162.485 35.2715C162.271 34.9568 162.002 34.7088 161.677 34.5275C161.357 34.3408 161.005 34.2475 160.621 34.2475C160.242 34.2475 159.89 34.3382 159.565 34.5195C159.245 34.7008 158.978 34.9488 158.765 35.2635C158.557 35.5728 158.418 35.9222 158.349 36.3115ZM169.898 40.9995V29.7995H176.498V31.4635H171.562V34.1675H175.73V35.8315H171.562V40.9995H169.898ZM183.272 32.9995H184.936V40.9995H183.264L183.2 39.8395C182.965 40.2502 182.648 40.5808 182.248 40.8315C181.853 41.0822 181.384 41.2075 180.84 41.2075C180.248 41.2075 179.693 41.0982 179.176 40.8795C178.664 40.6555 178.211 40.3462 177.816 39.9515C177.427 39.5568 177.12 39.1035 176.896 38.5915C176.677 38.0742 176.568 37.5195 176.568 36.9275C176.568 36.3568 176.675 35.8208 176.888 35.3195C177.101 34.8128 177.397 34.3702 177.776 33.9915C178.155 33.6128 178.592 33.3168 179.088 33.1035C179.589 32.8848 180.125 32.7755 180.696 32.7755C181.277 32.7755 181.789 32.9088 182.232 33.1755C182.68 33.4368 183.048 33.7728 183.336 34.1835L183.272 32.9995ZM180.88 39.5995C181.36 39.5995 181.773 39.4795 182.12 39.2395C182.472 38.9995 182.736 38.6768 182.912 38.2715C183.093 37.8662 183.171 37.4182 183.144 36.9275C183.112 36.4582 182.987 36.0315 182.768 35.6475C182.555 35.2635 182.269 34.9595 181.912 34.7355C181.555 34.5062 181.149 34.3915 180.696 34.3915C180.221 34.3915 179.792 34.5115 179.408 34.7515C179.029 34.9915 178.736 35.3142 178.528 35.7195C178.32 36.1248 178.229 36.5755 178.256 37.0715C178.288 37.5355 178.427 37.9595 178.672 38.3435C178.923 38.7275 179.24 39.0342 179.624 39.2635C180.013 39.4875 180.432 39.5995 180.88 39.5995ZM191.809 38.7275L193.297 39.5355C192.934 40.0422 192.473 40.4475 191.913 40.7515C191.358 41.0555 190.756 41.2075 190.105 41.2075C189.369 41.2075 188.697 41.0182 188.089 40.6395C187.486 40.2608 187.004 39.7542 186.641 39.1195C186.284 38.4795 186.105 37.7728 186.105 36.9995C186.105 36.4128 186.209 35.8662 186.417 35.3595C186.625 34.8475 186.91 34.3995 187.273 34.0155C187.641 33.6262 188.068 33.3222 188.553 33.1035C189.038 32.8848 189.556 32.7755 190.105 32.7755C190.756 32.7755 191.358 32.9275 191.913 33.2315C192.473 33.5355 192.934 33.9435 193.297 34.4555L191.809 35.2635C191.585 34.9968 191.324 34.7942 191.025 34.6555C190.726 34.5115 190.42 34.4395 190.105 34.4395C189.668 34.4395 189.27 34.5595 188.913 34.7995C188.561 35.0342 188.281 35.3462 188.073 35.7355C187.87 36.1195 187.769 36.5408 187.769 36.9995C187.769 37.4528 187.873 37.8742 188.081 38.2635C188.289 38.6475 188.569 38.9568 188.921 39.1915C189.278 39.4262 189.673 39.5435 190.105 39.5435C190.436 39.5435 190.75 39.4688 191.049 39.3195C191.348 39.1702 191.601 38.9728 191.809 38.7275ZM198.011 41.2075C197.275 41.2075 196.603 41.0182 195.995 40.6395C195.393 40.2608 194.91 39.7542 194.547 39.1195C194.19 38.4795 194.011 37.7728 194.011 36.9995C194.011 36.4128 194.115 35.8662 194.323 35.3595C194.531 34.8475 194.817 34.3995 195.179 34.0155C195.547 33.6262 195.974 33.3222 196.459 33.1035C196.945 32.8848 197.462 32.7755 198.011 32.7755C198.625 32.7755 199.187 32.9035 199.699 33.1595C200.211 33.4102 200.649 33.7595 201.011 34.2075C201.374 34.6502 201.641 35.1622 201.811 35.7435C201.982 36.3195 202.033 36.9328 201.963 37.5835H195.795C195.865 37.9515 195.998 38.2848 196.195 38.5835C196.398 38.8768 196.654 39.1088 196.963 39.2795C197.278 39.4502 197.627 39.5382 198.011 39.5435C198.417 39.5435 198.785 39.4422 199.115 39.2395C199.451 39.0368 199.726 38.7568 199.939 38.3995L201.627 38.7915C201.307 39.5008 200.825 40.0822 200.179 40.5355C199.534 40.9835 198.811 41.2075 198.011 41.2075ZM195.739 36.3115H200.283C200.23 35.9275 200.094 35.5808 199.875 35.2715C199.662 34.9568 199.393 34.7088 199.067 34.5275C198.747 34.3408 198.395 34.2475 198.011 34.2475C197.633 34.2475 197.281 34.3382 196.955 34.5195C196.635 34.7008 196.369 34.9488 196.155 35.2635C195.947 35.5728 195.809 35.9222 195.739 36.3115ZM207.417 32.7755C208.196 32.7755 208.902 32.9648 209.537 33.3435C210.177 33.7222 210.686 34.2315 211.065 34.8715C211.444 35.5062 211.633 36.2128 211.633 36.9915C211.633 37.5728 211.524 38.1195 211.305 38.6315C211.086 39.1382 210.782 39.5862 210.393 39.9755C210.009 40.3595 209.561 40.6608 209.049 40.8795C208.542 41.0982 207.998 41.2075 207.417 41.2075C206.857 41.2075 206.366 41.0795 205.945 40.8235C205.529 40.5622 205.188 40.2288 204.921 39.8235V40.9995H203.257V28.9995H204.921V34.1595C205.188 33.7488 205.529 33.4155 205.945 33.1595C206.366 32.9035 206.857 32.7755 207.417 32.7755ZM207.401 39.5915C207.865 39.5915 208.289 39.4742 208.673 39.2395C209.057 39.0048 209.361 38.6902 209.585 38.2955C209.814 37.9008 209.929 37.4662 209.929 36.9915C209.929 36.5062 209.814 36.0662 209.585 35.6715C209.356 35.2768 209.049 34.9648 208.665 34.7355C208.281 34.5008 207.86 34.3835 207.401 34.3835C206.937 34.3835 206.529 34.5008 206.177 34.7355C205.825 34.9702 205.55 35.2848 205.353 35.6795C205.156 36.0742 205.057 36.5115 205.057 36.9915C205.057 37.4715 205.156 37.9088 205.353 38.3035C205.55 38.6982 205.825 39.0128 206.177 39.2475C206.529 39.4768 206.937 39.5915 207.401 39.5915ZM216.433 41.2075C215.697 41.2075 215.025 41.0182 214.417 40.6395C213.814 40.2608 213.332 39.7542 212.969 39.1195C212.612 38.4795 212.433 37.7728 212.433 36.9995C212.433 36.4128 212.537 35.8662 212.745 35.3595C212.953 34.8475 213.238 34.3995 213.601 34.0155C213.969 33.6262 214.396 33.3222 214.881 33.1035C215.366 32.8848 215.884 32.7755 216.433 32.7755C217.169 32.7755 217.838 32.9648 218.441 33.3435C219.049 33.7222 219.532 34.2315 219.889 34.8715C220.252 35.5115 220.433 36.2208 220.433 36.9995C220.433 37.5808 220.329 38.1248 220.121 38.6315C219.913 39.1382 219.625 39.5862 219.257 39.9755C218.894 40.3595 218.47 40.6608 217.985 40.8795C217.505 41.0982 216.988 41.2075 216.433 41.2075ZM216.433 39.5435C216.876 39.5435 217.273 39.4262 217.625 39.1915C217.977 38.9568 218.254 38.6475 218.457 38.2635C218.665 37.8742 218.769 37.4528 218.769 36.9995C218.769 36.5355 218.662 36.1088 218.449 35.7195C218.241 35.3302 217.961 35.0208 217.609 34.7915C217.257 34.5568 216.865 34.4395 216.433 34.4395C215.996 34.4395 215.598 34.5568 215.241 34.7915C214.889 35.0262 214.609 35.3382 214.401 35.7275C214.198 36.1168 214.097 36.5408 214.097 36.9995C214.097 37.4742 214.204 37.9035 214.417 38.2875C214.63 38.6715 214.913 38.9782 215.265 39.2075C215.622 39.4315 216.012 39.5435 216.433 39.5435ZM225.23 41.2075C224.494 41.2075 223.822 41.0182 223.214 40.6395C222.611 40.2608 222.129 39.7542 221.766 39.1195C221.409 38.4795 221.23 37.7728 221.23 36.9995C221.23 36.4128 221.334 35.8662 221.542 35.3595C221.75 34.8475 222.035 34.3995 222.398 34.0155C222.766 33.6262 223.193 33.3222 223.678 33.1035C224.163 32.8848 224.681 32.7755 225.23 32.7755C225.966 32.7755 226.635 32.9648 227.238 33.3435C227.846 33.7222 228.329 34.2315 228.686 34.8715C229.049 35.5115 229.23 36.2208 229.23 36.9995C229.23 37.5808 229.126 38.1248 228.918 38.6315C228.71 39.1382 228.422 39.5862 228.054 39.9755C227.691 40.3595 227.267 40.6608 226.782 40.8795C226.302 41.0982 225.785 41.2075 225.23 41.2075ZM225.23 39.5435C225.673 39.5435 226.07 39.4262 226.422 39.1915C226.774 38.9568 227.051 38.6475 227.254 38.2635C227.462 37.8742 227.566 37.4528 227.566 36.9995C227.566 36.5355 227.459 36.1088 227.246 35.7195C227.038 35.3302 226.758 35.0208 226.406 34.7915C226.054 34.5568 225.662 34.4395 225.23 34.4395C224.793 34.4395 224.395 34.5568 224.038 34.7915C223.686 35.0262 223.406 35.3382 223.198 35.7275C222.995 36.1168 222.894 36.5408 222.894 36.9995C222.894 37.4742 223.001 37.9035 223.214 38.2875C223.427 38.6715 223.71 38.9782 224.062 39.2075C224.419 39.4315 224.809 39.5435 225.23 39.5435ZM237.404 40.9995H235.484L233.516 37.6075L232.228 39.1435V40.9995H230.572V28.9995H232.228V36.5595L235.212 32.9995H237.388L234.66 36.2555L237.404 40.9995Z" fill="#20203A"/>
<path fill-rule="evenodd" clip-rule="evenodd" d="M30 31.5637C30 37.2811 34.1525 42.0354 39.5833 42.9995V34.6936H36.7083V31.4995H39.5833V28.9436C39.5833 26.0686 41.4358 24.4721 44.0559 24.4721C44.8858 24.4721 45.7809 24.5995 46.6108 24.727V27.6662H45.1417C43.7358 27.6662 43.4167 28.3686 43.4167 29.2637V31.4995H46.4833L45.9725 34.6936H43.4167V42.9995C48.8475 42.0354 53 37.2821 53 31.5637C53 25.2033 47.825 19.9995 41.5 19.9995C35.175 19.9995 30 25.2033 30 31.5637Z" fill="#543393"/>
<defs>
<filter id="filter0_d_1_30666" x="0" y="-0.000488281" width="346" height="68" filterUnits="userSpaceOnUse" color-interpolation-filters="sRGB">
<feFlood flood-opacity="0" result="BackgroundImageFix"/>
<feColorMatrix in="SourceAlpha" type="matrix" values="0 0 0 0 0 0 0 0 0 0 0 0 0 0 0 0 0 0 127 0" result="hardAlpha"/>
<feOffset dy="2"/>
<feGaussianBlur stdDeviation="4.5"/>
<feComposite in2="hardAlpha" operator="out"/>
<feColorMatrix type="matrix" values="0 0 0 0 0.329412 0 0 0 0 0.2 0 0 0 0 0.576471 0 0 0 0.15 0"/>
<feBlend mode="normal" in2="BackgroundImageFix" result="effect1_dropShadow_1_30666"/>
<feBlend mode="normal" in="SourceGraphic" in2="effect1_dropShadow_1_30666" result="shape"/>
</filter>
</defs>
</svg>
