<svg width="346" height="68" viewBox="0 0 346 68" fill="none" xmlns="http://www.w3.org/2000/svg">
<g filter="url(#filter0_d_1_30658)">
<rect x="9" y="7" width="328" height="50" rx="6" fill="white"/>
</g>
<path d="M117.218 38V26.8H118.882V36.336H123.706V38H117.218ZM125.468 30H127.132V38H125.468V30ZM126.308 28.68C126.057 28.68 125.846 28.5973 125.676 28.432C125.505 28.2667 125.42 28.0587 125.42 27.808C125.42 27.5627 125.505 27.3573 125.676 27.192C125.846 27.0213 126.057 26.936 126.308 26.936C126.553 26.936 126.761 27.0213 126.932 27.192C127.102 27.3573 127.188 27.5627 127.188 27.808C127.188 28.0587 127.102 28.2667 126.932 28.432C126.761 28.5973 126.553 28.68 126.308 28.68ZM137.032 33.808V38H135.368V33.84C135.368 33.3867 135.272 32.976 135.08 32.608C134.894 32.2347 134.635 31.9387 134.304 31.72C133.979 31.496 133.608 31.384 133.192 31.384C132.776 31.384 132.411 31.496 132.096 31.72C131.787 31.9387 131.544 32.2347 131.368 32.608C131.198 32.976 131.112 33.3867 131.112 33.84V38H129.448V30H131.112V31.08C131.39 30.6747 131.726 30.3573 132.12 30.128C132.515 29.8933 132.96 29.776 133.456 29.776C134.176 29.776 134.8 29.96 135.328 30.328C135.862 30.696 136.278 31.184 136.576 31.792C136.875 32.4 137.027 33.072 137.032 33.808ZM145.724 38H143.804L141.836 34.608L140.548 36.144V38H138.892V26H140.548V33.56L143.532 30H145.708L142.98 33.256L145.724 38ZM155.27 31.664H153.59L153.582 38H151.918L151.926 31.664H150.654V30H151.926L151.918 27.488H153.582L153.59 30H155.27V31.664ZM163.946 33.816V38H162.282V33.848C162.282 33.3947 162.186 32.9813 161.994 32.608C161.807 32.2347 161.557 31.9387 161.242 31.72C160.927 31.5013 160.578 31.392 160.194 31.392C159.778 31.392 159.423 31.5013 159.13 31.72C158.837 31.9387 158.61 32.2347 158.45 32.608C158.295 32.9813 158.218 33.3947 158.218 33.848V38H156.546V26H158.21V30.936C158.434 30.504 158.727 30.2053 159.09 30.04C159.458 29.8693 159.879 29.784 160.354 29.784C161.074 29.784 161.701 29.968 162.234 30.336C162.767 30.704 163.183 31.1947 163.482 31.808C163.781 32.416 163.935 33.0853 163.946 33.816ZM168.8 38.208C168.064 38.208 167.392 38.0187 166.784 37.64C166.182 37.2613 165.699 36.7547 165.336 36.12C164.979 35.48 164.8 34.7733 164.8 34C164.8 33.4133 164.904 32.8667 165.112 32.36C165.32 31.848 165.606 31.4 165.968 31.016C166.336 30.6267 166.763 30.3227 167.248 30.104C167.734 29.8853 168.251 29.776 168.8 29.776C169.414 29.776 169.976 29.904 170.488 30.16C171 30.4107 171.438 30.76 171.8 31.208C172.163 31.6507 172.43 32.1627 172.6 32.744C172.771 33.32 172.822 33.9333 172.752 34.584H166.584C166.654 34.952 166.787 35.2853 166.984 35.584C167.187 35.8773 167.443 36.1093 167.752 36.28C168.067 36.4507 168.416 36.5387 168.8 36.544C169.206 36.544 169.574 36.4427 169.904 36.24C170.24 36.0373 170.515 35.7573 170.728 35.4L172.416 35.792C172.096 36.5013 171.614 37.0827 170.968 37.536C170.323 37.984 169.6 38.208 168.8 38.208ZM166.528 33.312H171.072C171.019 32.928 170.883 32.5813 170.664 32.272C170.451 31.9573 170.182 31.7093 169.856 31.528C169.536 31.3413 169.184 31.248 168.8 31.248C168.422 31.248 168.07 31.3387 167.744 31.52C167.424 31.7013 167.158 31.9493 166.944 32.264C166.736 32.5733 166.598 32.9227 166.528 33.312ZM183.109 38.208C182.331 38.208 181.605 38.0587 180.933 37.76C180.267 37.456 179.683 37.0373 179.181 36.504C178.685 35.9653 178.296 35.344 178.013 34.64C177.736 33.936 177.597 33.1867 177.597 32.392C177.597 31.5547 177.747 30.784 178.045 30.08C178.344 29.376 178.752 28.7653 179.269 28.248C179.787 27.7253 180.376 27.32 181.037 27.032C181.704 26.744 182.403 26.6 183.133 26.6C183.96 26.6 184.755 26.792 185.517 27.176C186.28 27.56 186.944 28.136 187.509 28.904L186.021 29.712C185.637 29.232 185.189 28.8693 184.677 28.624C184.171 28.3787 183.651 28.256 183.117 28.256C182.6 28.256 182.109 28.3627 181.645 28.576C181.181 28.784 180.771 29.0773 180.413 29.456C180.056 29.8293 179.773 30.2693 179.565 30.776C179.363 31.2773 179.261 31.824 179.261 32.416C179.261 32.9867 179.36 33.5227 179.557 34.024C179.76 34.5253 180.037 34.9653 180.389 35.344C180.747 35.7173 181.157 36.0107 181.621 36.224C182.091 36.4373 182.592 36.544 183.125 36.544C183.52 36.544 183.899 36.48 184.261 36.352C184.624 36.224 184.96 36.0427 185.269 35.808C185.584 35.568 185.859 35.2827 186.093 34.952C186.328 34.6213 186.515 34.2533 186.653 33.848H184.277V32.376H188.605C188.616 33.176 188.477 33.928 188.189 34.632C187.907 35.336 187.512 35.9573 187.005 36.496C186.504 37.0293 185.92 37.448 185.253 37.752C184.587 38.056 183.872 38.208 183.109 38.208ZM193.378 38.208C192.642 38.208 191.97 38.0187 191.362 37.64C190.76 37.2613 190.277 36.7547 189.914 36.12C189.557 35.48 189.378 34.7733 189.378 34C189.378 33.4133 189.482 32.8667 189.69 32.36C189.898 31.848 190.184 31.4 190.546 31.016C190.914 30.6267 191.341 30.3227 191.826 30.104C192.312 29.8853 192.829 29.776 193.378 29.776C194.114 29.776 194.784 29.9653 195.386 30.344C195.994 30.7227 196.477 31.232 196.834 31.872C197.197 32.512 197.378 33.2213 197.378 34C197.378 34.5813 197.274 35.1253 197.066 35.632C196.858 36.1387 196.57 36.5867 196.202 36.976C195.84 37.36 195.416 37.6613 194.93 37.88C194.45 38.0987 193.933 38.208 193.378 38.208ZM193.378 36.544C193.821 36.544 194.218 36.4267 194.57 36.192C194.922 35.9573 195.2 35.648 195.402 35.264C195.61 34.8747 195.714 34.4533 195.714 34C195.714 33.536 195.608 33.1093 195.394 32.72C195.186 32.3307 194.906 32.0213 194.554 31.792C194.202 31.5573 193.81 31.44 193.378 31.44C192.941 31.44 192.544 31.5573 192.186 31.792C191.834 32.0267 191.554 32.3387 191.346 32.728C191.144 33.1173 191.042 33.5413 191.042 34C191.042 34.4747 191.149 34.904 191.362 35.288C191.576 35.672 191.858 35.9787 192.21 36.208C192.568 36.432 192.957 36.544 193.378 36.544ZM202.175 38.208C201.439 38.208 200.767 38.0187 200.159 37.64C199.557 37.2613 199.074 36.7547 198.711 36.12C198.354 35.48 198.175 34.7733 198.175 34C198.175 33.4133 198.279 32.8667 198.487 32.36C198.695 31.848 198.981 31.4 199.343 31.016C199.711 30.6267 200.138 30.3227 200.623 30.104C201.109 29.8853 201.626 29.776 202.175 29.776C202.911 29.776 203.581 29.9653 204.183 30.344C204.791 30.7227 205.274 31.232 205.631 31.872C205.994 32.512 206.175 33.2213 206.175 34C206.175 34.5813 206.071 35.1253 205.863 35.632C205.655 36.1387 205.367 36.5867 204.999 36.976C204.637 37.36 204.213 37.6613 203.727 37.88C203.247 38.0987 202.73 38.208 202.175 38.208ZM202.175 36.544C202.618 36.544 203.015 36.4267 203.367 36.192C203.719 35.9573 203.997 35.648 204.199 35.264C204.407 34.8747 204.511 34.4533 204.511 34C204.511 33.536 204.405 33.1093 204.191 32.72C203.983 32.3307 203.703 32.0213 203.351 31.792C202.999 31.5573 202.607 31.44 202.175 31.44C201.738 31.44 201.341 31.5573 200.983 31.792C200.631 32.0267 200.351 32.3387 200.143 32.728C199.941 33.1173 199.839 33.5413 199.839 34C199.839 34.4747 199.946 34.904 200.159 35.288C200.373 35.672 200.655 35.9787 201.007 36.208C201.365 36.432 201.754 36.544 202.175 36.544ZM213.54 30H215.204V38.208C215.204 38.7573 215.087 39.264 214.852 39.728C214.623 40.192 214.311 40.592 213.916 40.928C213.522 41.2693 213.068 41.5333 212.556 41.72C212.05 41.9067 211.519 42 210.964 42C210.404 42 209.866 41.88 209.348 41.64C208.831 41.4053 208.375 41.0853 207.98 40.68C207.591 40.2747 207.3 39.816 207.108 39.304L208.636 38.616C208.743 38.9467 208.914 39.24 209.148 39.496C209.388 39.752 209.666 39.9547 209.98 40.104C210.3 40.2533 210.628 40.328 210.964 40.328C211.295 40.328 211.612 40.2747 211.916 40.168C212.226 40.0667 212.5 39.9227 212.74 39.736C212.986 39.5493 213.18 39.3253 213.324 39.064C213.468 38.8027 213.54 38.5173 213.54 38.208V36.856C213.279 37.2613 212.943 37.5893 212.532 37.84C212.122 38.0853 211.644 38.208 211.1 38.208C210.535 38.208 210.002 38.0987 209.5 37.88C208.999 37.6613 208.559 37.36 208.18 36.976C207.802 36.5867 207.506 36.1387 207.292 35.632C207.079 35.1253 206.972 34.5813 206.972 34C206.972 33.4187 207.079 32.8747 207.292 32.368C207.506 31.856 207.802 31.408 208.18 31.024C208.559 30.6347 208.999 30.3307 209.5 30.112C210.002 29.8933 210.535 29.784 211.1 29.784C211.644 29.784 212.122 29.9093 212.532 30.16C212.943 30.4053 213.279 30.7333 213.54 31.144V30ZM211.116 36.6C211.58 36.6 211.986 36.4827 212.332 36.248C212.679 36.008 212.948 35.6907 213.14 35.296C213.332 34.9013 213.428 34.4693 213.428 34C213.428 33.52 213.33 33.0853 213.132 32.696C212.94 32.3013 212.671 31.9867 212.324 31.752C211.978 31.512 211.575 31.392 211.116 31.392C210.668 31.392 210.258 31.5093 209.884 31.744C209.516 31.9787 209.223 32.2933 209.004 32.688C208.786 33.0827 208.676 33.52 208.676 34C208.676 34.48 208.786 34.9173 209.004 35.312C209.228 35.7067 209.524 36.0213 209.892 36.256C210.266 36.4853 210.674 36.6 211.116 36.6ZM217.079 38V26H218.735V38H217.079ZM224.269 38.208C223.533 38.208 222.861 38.0187 222.253 37.64C221.65 37.2613 221.168 36.7547 220.805 36.12C220.448 35.48 220.269 34.7733 220.269 34C220.269 33.4133 220.373 32.8667 220.581 32.36C220.789 31.848 221.074 31.4 221.437 31.016C221.805 30.6267 222.232 30.3227 222.717 30.104C223.202 29.8853 223.72 29.776 224.269 29.776C224.882 29.776 225.445 29.904 225.957 30.16C226.469 30.4107 226.906 30.76 227.269 31.208C227.632 31.6507 227.898 32.1627 228.069 32.744C228.24 33.32 228.29 33.9333 228.221 34.584H222.053C222.122 34.952 222.256 35.2853 222.453 35.584C222.656 35.8773 222.912 36.1093 223.221 36.28C223.536 36.4507 223.885 36.5387 224.269 36.544C224.674 36.544 225.042 36.4427 225.373 36.24C225.709 36.0373 225.984 35.7573 226.197 35.4L227.885 35.792C227.565 36.5013 227.082 37.0827 226.437 37.536C225.792 37.984 225.069 38.208 224.269 38.208ZM221.997 33.312H226.541C226.488 32.928 226.352 32.5813 226.133 32.272C225.92 31.9573 225.65 31.7093 225.325 31.528C225.005 31.3413 224.653 31.248 224.269 31.248C223.89 31.248 223.538 31.3387 223.213 31.52C222.893 31.7013 222.626 31.9493 222.413 32.264C222.205 32.5733 222.066 32.9227 221.997 33.312Z" fill="#20203A"/>
<path d="M52.7735 29.3435C52.9201 30.1133 53 30.9182 53 31.7582C53 38.3283 48.5128 43 41.7354 43C40.1942 43.0005 38.668 42.7033 37.2439 42.1255C35.8199 41.5478 34.526 40.7007 33.4362 39.6328C32.3464 38.5648 31.4819 37.2969 30.8924 35.9014C30.3028 34.506 29.9995 33.0103 30 31.5C29.9995 29.9897 30.3028 28.494 30.8924 27.0986C31.4819 25.7031 32.3464 24.4352 33.4362 23.3672C34.526 22.2993 35.8199 21.4522 37.2439 20.8744C38.668 20.2967 40.1942 19.9995 41.7354 20C44.9042 20 47.5519 21.1425 49.5833 22.9977L46.2751 26.2395V26.2313C45.0436 25.0818 43.4807 24.4918 41.7354 24.4918C37.8634 24.4918 34.7161 27.6974 34.7161 31.493C34.7161 35.2874 37.8634 38.5 41.7354 38.5C45.2487 38.5 47.6401 36.5315 48.1313 33.8283H41.7354V29.3435H52.7747H52.7735Z" fill="#543393"/>
<defs>
<filter id="filter0_d_1_30658" x="0" y="0" width="346" height="68" filterUnits="userSpaceOnUse" color-interpolation-filters="sRGB">
<feFlood flood-opacity="0" result="BackgroundImageFix"/>
<feColorMatrix in="SourceAlpha" type="matrix" values="0 0 0 0 0 0 0 0 0 0 0 0 0 0 0 0 0 0 127 0" result="hardAlpha"/>
<feOffset dy="2"/>
<feGaussianBlur stdDeviation="4.5"/>
<feComposite in2="hardAlpha" operator="out"/>
<feColorMatrix type="matrix" values="0 0 0 0 0.329412 0 0 0 0 0.2 0 0 0 0 0.576471 0 0 0 0.15 0"/>
<feBlend mode="normal" in2="BackgroundImageFix" result="effect1_dropShadow_1_30658"/>
<feBlend mode="normal" in="SourceGraphic" in2="effect1_dropShadow_1_30658" result="shape"/>
</filter>
</defs>
</svg>
