<svg width="20" height="21" viewBox="0 0 20 21" fill="none" xmlns="http://www.w3.org/2000/svg">
<path fill-rule="evenodd" clip-rule="evenodd" d="M14.4377 0C15.0924 0 15.7201 0.261426 16.1785 0.723439L19.2794 3.82441C19.7411 4.2861 20.0005 4.91228 20.0005 5.56521C20.0005 6.21813 19.7411 6.84432 19.2794 7.306L7.95769 18.6242C7.25919 19.4299 6.26904 19.925 5.13472 20.0028H0V19.0028L0.00324772 14.7876C0.0884402 13.7332 0.57868 12.7526 1.32653 12.0937L12.6957 0.724645C13.1567 0.260835 13.7837 0 14.4377 0ZM5.06601 18.0047C5.60025 17.9669 6.09754 17.7183 6.49686 17.2615L14.0569 9.70143L10.3025 5.94682L2.69808 13.5494C2.29292 13.9077 2.04227 14.409 2.00196 14.8676V18.0028L5.06601 18.0047ZM11.7169 4.53275L15.4712 8.28718L17.8671 5.89123C17.9537 5.80462 18.0024 5.68716 18.0024 5.56468C18.0024 5.4422 17.9537 5.32474 17.8671 5.23813L14.7634 2.13438C14.6777 2.04807 14.5612 1.99952 14.4396 1.99952C14.318 1.99952 14.2015 2.04807 14.1158 2.13438L11.7169 4.53275Z" fill="#EB2D7C"/>
</svg>
