<svg width="20" height="20" viewBox="0 0 20 20" fill="none" xmlns="http://www.w3.org/2000/svg">
<path d="M2.5 5H4.16667H17.5" stroke="#EB2D7C" stroke-width="1.5" stroke-linecap="round" stroke-linejoin="round"/>
<path d="M16.5827 5.00008C16.5827 4.58587 16.2469 4.25008 15.8327 4.25008C15.4185 4.25008 15.0827 4.58587 15.0827 5.00008H16.5827ZM4.91602 5.00008C4.91602 4.58587 4.58023 4.25008 4.16602 4.25008C3.7518 4.25008 3.41602 4.58587 3.41602 5.00008H4.91602ZM5.91602 5.00008C5.91602 5.41429 6.2518 5.75008 6.66602 5.75008C7.08023 5.75008 7.41602 5.41429 7.41602 5.00008H5.91602ZM12.5827 5.00008C12.5827 5.41429 12.9185 5.75008 13.3327 5.75008C13.7469 5.75008 14.0827 5.41429 14.0827 5.00008H12.5827ZM15.0827 5.00008V16.6667H16.5827V5.00008H15.0827ZM15.0827 16.6667C15.0827 17.173 14.6723 17.5834 14.166 17.5834V19.0834C15.5007 19.0834 16.5827 18.0014 16.5827 16.6667H15.0827ZM14.166 17.5834H5.83268V19.0834H14.166V17.5834ZM5.83268 17.5834C5.32642 17.5834 4.91602 17.173 4.91602 16.6667H3.41602C3.41602 18.0014 4.49799 19.0834 5.83268 19.0834V17.5834ZM4.91602 16.6667V5.00008H3.41602V16.6667H4.91602ZM7.41602 5.00008V3.33341H5.91602V5.00008H7.41602ZM7.41602 3.33341C7.41602 2.82715 7.82642 2.41675 8.33268 2.41675V0.916748C6.99799 0.916748 5.91602 1.99873 5.91602 3.33341H7.41602ZM8.33268 2.41675H11.666V0.916748H8.33268V2.41675ZM11.666 2.41675C12.1723 2.41675 12.5827 2.82715 12.5827 3.33341H14.0827C14.0827 1.99873 13.0007 0.916748 11.666 0.916748V2.41675ZM12.5827 3.33341V5.00008H14.0827V3.33341H12.5827Z" fill="#EB2D7C"/>
<path d="M8.33398 9.16675V14.1667" stroke="#EB2D7C" stroke-width="1.5" stroke-linecap="round" stroke-linejoin="round"/>
<path d="M11.666 9.16675V14.1667" stroke="#EB2D7C" stroke-width="1.5" stroke-linecap="round" stroke-linejoin="round"/>
</svg>
