<svg width="50" height="50" viewBox="0 0 50 50" fill="none" xmlns="http://www.w3.org/2000/svg">
<rect x="8" y="8" width="34" height="34" rx="17" fill="#EBE7F3"/>
<path d="M20.5 20.4999C20.5 18.0147 22.5147 16 25 16C27.4853 16 29.5 18.0147 29.5 20.4999C29.5 22.9851 27.4853 24.9998 25 24.9998C22.5147 24.9998 20.5 22.9851 20.5 20.4999Z" fill="#543393"/>
<path d="M20.5 26.7986C18.0147 26.7986 16 28.8133 16 31.2985V32.1985C16 33.1926 16.8059 33.9984 17.8 33.9984H32.2C33.1941 33.9984 34 33.1926 34 32.1985V31.2985C34 28.8133 31.9853 26.7986 29.5 26.7986H20.5Z" fill="#543393"/>
</svg>
